<svg id="Capa_1" enable-background="new 0 0 512 512" height="512" viewBox="0 0 512 512" width="512" xmlns="http://www.w3.org/2000/svg"><g><g><path d="m495.484 90.839h-478.968c-4.025 0-7.714 1.44-10.58 3.833l88.515 186.103 417.549-24.775v-148.645c0-9.122-7.395-16.516-16.516-16.516z" fill="#f2f2f6"/><path d="m6.333 256v157h489.151l16.516-8.355v-148.645z" fill="#e5646e"/><path d="m66.065 404.645c-10.185 0-19.652-3.073-27.525-8.342l-28.467-3.291-4.134 24.318c2.865 2.392 6.553 3.831 10.577 3.831h478.968c9.121 0 16.516-7.395 16.516-16.516z" fill="#db4655"/><path d="m16.516 101.494-5.016 5.861v285.657l27.039 3.291 217.461-140.303z" fill="#5055a0"/><path d="m38.544 396.294c-13.28-8.888-22.028-24.018-22.028-41.198v-253.602l-10.581-6.823c-3.639 3.029-5.935 7.578-5.935 12.684v297.29c0 5.105 2.298 9.655 5.937 12.684z" fill="#3f3f8f"/></g></g></svg>