<svg id="Capa_1" enable-background="new 0 0 512 512" height="512" viewBox="0 0 512 512" width="512" xmlns="http://www.w3.org/2000/svg"><g><path d="m495.484 90.839h-478.968l-8.849 16.516v291.129c0 9.122 7.395 16.516 16.516 16.516h471.301l16.516-10.355v-49.548l-15-18.097v-166l15-14.097v-49.548c0-9.122-7.395-16.516-16.516-16.516z" fill="#e5646e"/><path d="m16.516 355.097v-264.258c-9.121 0-16.516 7.394-16.516 16.516v49.548l7.5 11.597v173.5l-7.5 13.097v49.548c0 9.122 7.395 16.516 16.516 16.516h478.968c9.121 0 16.516-7.395 16.516-16.516h-445.935c-27.365 0-49.549-22.183-49.549-49.548z" fill="#db4655"/><path d="m512 355.097h-495.484l-8.016-15.597v-162.5l8.016-20.097h495.484z" fill="#ffe07d"/><path d="m148.645 189.935c-9.121 0-16.516 7.394-16.516 16.516v24.774h33.032v-24.774c0-9.121-7.394-16.516-16.516-16.516z" fill="#db4655"/><path d="m148.645 313.806-41.29-49.548v-33.032c0-4.561 3.697-8.258 8.258-8.258h33.032l41.29 41.29v8.258c0 22.804-18.486 41.29-41.29 41.29z" fill="#e5646e"/><path d="m66.065 222.968h16.516v82.581h-16.516z" fill="#fff"/><path d="m0 156.903h16.516v198.194h-16.516z" fill="#ffd064"/><circle cx="74.323" cy="222.968" fill="#e5646e" r="8.258"/><circle cx="74.323" cy="305.548" fill="#5055a0" r="8.258"/><path d="m214.71 222.968h16.516v82.581h-16.516z" fill="#fff"/><circle cx="222.968" cy="222.968" fill="#e5646e" r="8.258"/><circle cx="222.968" cy="305.548" fill="#5055a0" r="8.258"/><path d="m181.677 222.968h-33.032v41.29h41.29v-33.032c0-4.561-3.697-8.258-8.258-8.258z" fill="#fff"/><path d="m107.355 264.258v8.258c0 22.804 18.486 41.29 41.29 41.29v-49.548z" fill="#ffc269"/><circle cx="148.645" cy="264.258" fill="#5055a0" r="16.516"/></g></svg>